<svg xmlns="http://www.w3.org/2000/svg" xmlns:xlink="http://www.w3.org/1999/xlink" version="1.1" x="0px" y="0px" viewBox="0 0 48 60" style="enable-background:new 0 0 48 48;" xml:space="preserve"><g><path d="M24,23.99c-4.37,0-7.93,3.56-7.93,7.93c0,4.37,3.56,7.93,7.93,7.93s7.93-3.56,7.93-7.93C31.93,27.55,28.37,23.99,24,23.99z    M24,37.85c-3.27,0-5.93-2.66-5.93-5.93s2.66-5.93,5.93-5.93s5.93,2.66,5.93,5.93S27.27,37.85,24,37.85z"/><path d="M24.16,29.39c-0.31,0.46-0.18,1.08,0.28,1.39l0.22,0.15h-4.62c-0.55,0-1,0.45-1,1s0.45,1,1,1h4.62l-0.22,0.15   c-0.46,0.31-0.58,0.93-0.28,1.39c0.19,0.29,0.51,0.45,0.83,0.45c0.19,0,0.38-0.05,0.55-0.17l2.97-1.98c0.01,0,0.01-0.01,0.02-0.02   c0.03-0.02,0.06-0.05,0.08-0.07c0.03-0.03,0.06-0.06,0.09-0.09c0.03-0.03,0.05-0.05,0.08-0.09c0.02-0.03,0.03-0.06,0.04-0.09   c0,0,0-0.01,0.01-0.01c0.02-0.04,0.04-0.08,0.06-0.12c0.01-0.02,0.02-0.03,0.03-0.05c0.01-0.02,0-0.04,0.01-0.05   c0.01-0.04,0.01-0.08,0.02-0.13c0-0.02,0.01-0.03,0.01-0.05c0-0.02,0.01-0.04,0.01-0.06c0,0,0-0.01,0-0.01   c0-0.04-0.01-0.07-0.02-0.11c-0.01-0.04-0.01-0.08-0.02-0.13c-0.01-0.04-0.02-0.08-0.03-0.12c-0.01-0.03-0.03-0.06-0.05-0.09   c0-0.01-0.01-0.02-0.01-0.02c-0.01-0.02-0.01-0.05-0.03-0.07c-0.01-0.01-0.02-0.01-0.02-0.02c-0.02-0.03-0.05-0.06-0.07-0.08   c-0.03-0.03-0.06-0.06-0.1-0.09c-0.03-0.03-0.05-0.06-0.09-0.08l0,0c0,0,0,0,0,0l-2.96-1.98C25.08,28.8,24.46,28.93,24.16,29.39z"/><path d="M28.91,5.24C27.61,3.93,25.86,3.2,24,3.2c-3.83,0-6.94,3.11-6.94,6.94v2.96h-4.94c-0.46,0-0.86,0.31-0.97,0.76l-0.99,3.96   c-0.01,0.03,0,0.05,0,0.08c-0.01,0.03-0.02,0.06-0.02,0.09L8.15,43.72C8.13,44,8.23,44.27,8.42,44.48c0.19,0.2,0.46,0.32,0.73,0.32   h29.7c0.28,0,0.54-0.12,0.73-0.32c0.19-0.2,0.29-0.48,0.26-0.76l-1.98-25.74c0-0.03-0.02-0.06-0.02-0.09c0-0.03,0-0.05,0-0.08   l-0.99-3.96c-0.11-0.44-0.51-0.76-0.97-0.76h-4.94v-2.96C30.94,8.28,30.22,6.54,28.91,5.24z M29.99,21.03l0.94,0l-0.99,0.01   C29.96,21.04,29.97,21.03,29.99,21.03z M19.06,10.14c0-2.72,2.22-4.94,4.94-4.94c1.32,0,2.56,0.51,3.49,1.45   c0.93,0.92,1.45,2.16,1.45,3.49v2.96h-9.88V10.14z M19.06,15.1h9.88v1.96h-9.88V15.1z M18.11,21.03l0.94,0l-0.99,0.01   C18.08,21.04,18.09,21.03,18.11,21.03z M12.9,15.1h4.16v1.96h-4.65L12.9,15.1z M35.94,19.06l1.83,23.74H10.23l1.83-23.74h5v0.26   c-0.59,0.35-0.99,0.98-0.99,1.71c0,1.1,0.89,1.99,1.99,1.99c1.1,0,1.99-0.89,1.99-1.99c0-0.73-0.4-1.37-0.99-1.71v-0.26h9.88v0.26   c-0.59,0.35-0.99,0.98-0.99,1.71c0,1.1,0.89,1.99,1.99,1.99c1.1,0,1.99-0.89,1.99-1.99c0-0.73-0.4-1.37-0.99-1.71v-0.26H35.94z    M35.1,15.1l0.49,1.96h-4.65V15.1H35.1z"/></g><text x="0" y="63" fill="#000000" font-size="5px" font-weight="bold" font-family="'Helvetica Neue', Helvetica, Arial-Unicode, Arial, Sans-serif">Created by barurezeki</text><text x="0" y="68" fill="#000000" font-size="5px" font-weight="bold" font-family="'Helvetica Neue', Helvetica, Arial-Unicode, Arial, Sans-serif">from the Noun Project</text></svg>